<?xml version="1.0" encoding="utf-8"?>
<!-- Generator: Adobe Illustrator 22.0.1, SVG Export Plug-In . SVG Version: 6.00 Build 0)  -->
<svg version="1.1" id="Capa_1" xmlns="http://www.w3.org/2000/svg" xmlns:xlink="http://www.w3.org/1999/xlink" x="0px" y="0px"
	 viewBox="0 0 28 28" style="enable-background:new 0 0 28 28;" xml:space="preserve">
<style type="text/css">
	.st0{fill:#FFFFFF;}
	.st1{enable-background:new    ;}
</style>
<g>
	<path class="st0" d="M14,3.2c6,0,10.9,4.9,10.9,10.9S20,24.9,14,24.9S3.1,20.1,3.1,14.1S8,3.2,14,3.2 M14,1.1
		C6.9,1.1,1.1,6.8,1.1,14.1S6.9,26.9,14,26.9S26.9,21.1,26.9,14S21.1,1.1,14,1.1L14,1.1z"/>
</g>
<g>
	<g class="st1">
		<path class="st0" d="M15.7,7.5c0,0.6-0.1,1-0.4,1.2S14.6,9.1,14,9.1c-0.7,0-1.1-0.1-1.3-0.3s-0.3-0.6-0.3-1.2c0-0.6,0.1-1,0.4-1.2
			S13.3,6,14,6c0.7,0,1.1,0.1,1.3,0.3S15.7,7,15.7,7.5z M15.5,21.5c0,0.1,0,0.1-0.1,0.2s-0.1,0.1-0.2,0.1s-0.3,0.1-0.5,0.1
			s-0.4,0-0.7,0s-0.5,0-0.7,0s-0.3,0-0.5-0.1s-0.2-0.1-0.2-0.1s-0.1-0.1-0.1-0.2V11.1c0-0.1,0-0.1,0.1-0.2s0.1-0.1,0.2-0.2
			s0.3-0.1,0.5-0.1s0.4,0,0.7,0s0.5,0,0.7,0s0.3,0.1,0.5,0.1s0.2,0.1,0.2,0.2s0.1,0.1,0.1,0.2V21.5z"/>
	</g>
</g>
</svg>
