<?xml version="1.0" encoding="utf-8"?>
<!-- Generator: Adobe Illustrator 22.0.1, SVG Export Plug-In . SVG Version: 6.00 Build 0)  -->
<svg version="1.1" id="Capa_1" xmlns="http://www.w3.org/2000/svg" xmlns:xlink="http://www.w3.org/1999/xlink" x="0px" y="0px"
	 viewBox="0 0 25 25" style="enable-background:new 0 0 25 25;" xml:space="preserve">
<style type="text/css">
	.st0{fill:#FFFFFF;}
</style>
<g>
	<path class="st0" d="M23.5,6.9c-0.2-1.5-0.7-2.8-1.8-3.8c-1.1-1.1-2.6-1.6-4.1-1.7C15,1.3,8.7,1.2,6.5,1.6C4,2,2.4,3.5,1.7,5.9
		C1.2,7.8,1.3,16.6,1.6,18.5C2,21,3.5,22.7,6.1,23.3c1.8,0.5,10.4,0.4,12.4,0.1c2.6-0.4,4.2-1.9,4.9-4.5C23.8,17,23.7,8.7,23.5,6.9z
		 M21.4,18.1c-0.3,2-1.6,3.2-3.6,3.4c-1.8,0.2-9.8,0.3-11.5-0.2c-1.6-0.4-2.5-1.5-2.8-3.2c-0.3-1.5-0.3-9.2,0-11.3
		C3.9,5,5.2,3.7,7.1,3.5c2-0.2,9.1-0.2,11,0c1.9,0.3,3.2,1.6,3.4,3.6C21.7,9,21.7,16.1,21.4,18.1z M12.5,6.8c-3.2,0-5.7,2.6-5.7,5.7
		c0,3.2,2.6,5.7,5.7,5.7s5.7-2.6,5.7-5.7S15.7,6.8,12.5,6.8z M12.5,16.2c-2,0-3.7-1.7-3.7-3.7s1.7-3.7,3.7-3.7c2,0,3.7,1.7,3.7,3.7
		C16.2,14.6,14.5,16.2,12.5,16.2z M19.8,6.6c0,0.7-0.6,1.3-1.3,1.3c-0.7,0-1.3-0.6-1.3-1.3c0-0.7,0.6-1.3,1.3-1.3
		C19.2,5.2,19.8,5.8,19.8,6.6z"/>
	<path class="st0" d="M23.5,6.9c-0.2-1.5-0.7-2.8-1.8-3.8c-1.1-1.1-2.6-1.6-4.1-1.7C15,1.3,8.7,1.2,6.5,1.6C4,2,2.4,3.5,1.7,5.9
		C1.2,7.8,1.3,16.6,1.6,18.5C2,21,3.5,22.7,6.1,23.3c1.8,0.5,10.4,0.4,12.4,0.1c2.6-0.4,4.2-1.9,4.9-4.5C23.8,17,23.7,8.7,23.5,6.9z
		 M21.4,18.1c-0.3,2-1.6,3.2-3.6,3.4c-1.8,0.2-9.8,0.3-11.5-0.2c-1.6-0.4-2.5-1.5-2.8-3.2c-0.3-1.5-0.3-9.2,0-11.3
		C3.9,5,5.2,3.7,7.1,3.5c2-0.2,9.1-0.2,11,0c1.9,0.3,3.2,1.6,3.4,3.6C21.7,9,21.7,16.1,21.4,18.1z M12.5,6.8c-3.2,0-5.7,2.6-5.7,5.7
		c0,3.2,2.6,5.7,5.7,5.7s5.7-2.6,5.7-5.7S15.7,6.8,12.5,6.8z M12.5,16.2c-2,0-3.7-1.7-3.7-3.7s1.7-3.7,3.7-3.7c2,0,3.7,1.7,3.7,3.7
		C16.2,14.6,14.5,16.2,12.5,16.2z M19.8,6.6c0,0.7-0.6,1.3-1.3,1.3c-0.7,0-1.3-0.6-1.3-1.3c0-0.7,0.6-1.3,1.3-1.3
		C19.2,5.2,19.8,5.8,19.8,6.6z"/>
</g>
</svg>
