<?xml version="1.0" encoding="utf-8"?>
<!-- Generator: Adobe Illustrator 22.0.1, SVG Export Plug-In . SVG Version: 6.00 Build 0)  -->
<svg version="1.1" id="Capa_1" xmlns="http://www.w3.org/2000/svg" xmlns:xlink="http://www.w3.org/1999/xlink" x="0px" y="0px"
	 viewBox="0 0 25 25" style="enable-background:new 0 0 25 25;" xml:space="preserve">
<style type="text/css">
	.st0{fill-rule:evenodd;clip-rule:evenodd;fill:#FFFFFF;}
</style>
<path class="st0" d="M7.6,18.2c-2.7-0.1-4.3-2-4.8-3.6c0.7,0.1,1.5,0.1,2.2-0.1c0,0,0,0,0.1,0c-1.4-0.3-2.6-1.1-3.3-2.4
	C1.2,11.4,1,10.5,1,9.5c0.7,0.4,1.5,0.6,2.3,0.6C2.2,9.3,1.5,8.3,1.2,7C0.9,5.7,1.1,4.5,1.7,3.3C4.5,6.6,8,8.4,12.3,8.7
	c0-0.2-0.1-0.4-0.1-0.6c-0.1-1.2,0.1-2.3,0.8-3.4c0.8-1.3,2-2.1,3.5-2.3c1.7-0.3,3.2,0.2,4.5,1.4C21,3.9,21.1,4,21.2,3.9
	c1.1-0.2,2-0.6,3-1.1c0,0,0,0,0.1,0c0,0,0,0,0,0c-0.4,1.2-1.1,2.1-2.2,2.8c1-0.1,1.9-0.4,2.9-0.8c0,0,0,0,0,0
	c-0.2,0.3-0.4,0.5-0.6,0.8c-0.5,0.7-1.2,1.3-1.9,1.8c-0.1,0-0.1,0.1-0.1,0.2c0,0.8,0,1.5-0.1,2.3c-0.2,1.6-0.6,3.1-1.3,4.6
	c-0.7,1.5-1.6,2.9-2.8,4c-2,2-4.3,3.3-7,3.9c-0.9,0.2-1.9,0.3-2.9,0.3c-3,0.1-5.7-0.6-8.2-2.2c0,0-0.1,0-0.1-0.1
	c1.8,0.2,3.5,0,5.1-0.7C6,19.3,6.8,18.8,7.6,18.2z"/>
</svg>
